<?xml version="1.0" encoding="UTF-8" standalone="no"?>
<!-- Created with Inkscape (http://www.inkscape.org/) -->

<svg
   xmlns:dc="http://purl.org/dc/elements/1.1/"
   xmlns:cc="http://creativecommons.org/ns#"
   xmlns:rdf="http://www.w3.org/1999/02/22-rdf-syntax-ns#"
   xmlns:svg="http://www.w3.org/2000/svg"
   xmlns="http://www.w3.org/2000/svg"
   xmlns:sodipodi="http://sodipodi.sourceforge.net/DTD/sodipodi-0.dtd"
   xmlns:inkscape="http://www.inkscape.org/namespaces/inkscape"
   version="1.1"
   id="svg815"
   xml:space="preserve"
   width="416"
   height="417.33334"
   viewBox="0 0 416 417.33334"
   sodipodi:docname="select.svg"
   inkscape:version="0.92.4 (5da689c313, 2019-01-14)"><metadata
     id="metadata821"><rdf:RDF><cc:Work
         rdf:about=""><dc:format>image/svg+xml</dc:format><dc:type
           rdf:resource="http://purl.org/dc/dcmitype/StillImage" /><dc:title></dc:title></cc:Work></rdf:RDF></metadata><defs
     id="defs819"><clipPath
       clipPathUnits="userSpaceOnUse"
       id="clipPath833"><path
         d="M 0,2 H 3120 V 3122 H 0 Z"
         id="path831"
         inkscape:connector-curvature="0" /></clipPath></defs><sodipodi:namedview
     pagecolor="#ffffff"
     bordercolor="#666666"
     borderopacity="1"
     objecttolerance="10"
     gridtolerance="10"
     guidetolerance="10"
     inkscape:pageopacity="0"
     inkscape:pageshadow="2"
     inkscape:window-width="1920"
     inkscape:window-height="986"
     id="namedview817"
     showgrid="false"
     inkscape:zoom="1.7563897"
     inkscape:cx="208"
     inkscape:cy="276.98864"
     inkscape:window-x="-11"
     inkscape:window-y="-11"
     inkscape:window-maximized="1"
     inkscape:current-layer="g823" /><g
     id="g823"
     inkscape:groupmode="layer"
     inkscape:label="ink_ext_XXXXXX"
     transform="matrix(1.3333333,0,0,-1.3333333,0,417.33333)"><g
       id="g825"
       transform="scale(0.1)"><g
         id="g827"><g
           id="g829"
           clip-path="url(#clipPath833)"><path
             d="m 3031.99,513.719 h -150.82 c -44.18,0 -80,-35.821 -80,-80 V 320.828 h -112.89 c -44.18,0 -80,-35.816 -80,-80 V 90.0117 c 0,-44.1836 35.82,-80 80,-80 h 343.71 c 44.18,0 80,35.8164 80,80 V 433.719 c 0,44.179 -35.82,80 -80,80 z"
             style="fill:#000000;fill-opacity:1;fill-rule:nonzero;stroke:none"
             id="path835"
             inkscape:connector-curvature="0" /><path
             d="M 1335.43,320.828 H 864.922 c -44.184,0 -80,-35.816 -80,-80 V 90.0117 c 0,-44.1836 35.816,-80 80,-80 h 470.508 c 44.18,0 80,35.8164 80,80 V 240.828 c 0,44.184 -35.82,80 -80,80 z"
             style="fill:#000000;fill-opacity:1;fill-rule:nonzero;stroke:none"
             id="path837"
             inkscape:connector-curvature="0" /><path
             d="M 2247.11,320.828 H 1776.6 c -44.18,0 -80,-35.816 -80,-80 V 90.0117 c 0,-44.1836 35.82,-80 80,-80 h 470.51 c 44.18,0 80,35.8164 80,80 V 240.828 c 0,44.184 -35.82,80 -80,80 z"
             style="fill:#000000;fill-opacity:1;fill-rule:nonzero;stroke:none"
             id="path839"
             inkscape:connector-curvature="0" /><path
             d="M 423.711,320.828 H 310.82 v 112.891 c 0,44.179 -35.82,80 -80,80 H 80 c -44.1797,0 -80,-35.821 -80,-80 V 90.0117 c 0,-44.1836 35.8203,-80 80,-80 h 343.711 c 44.18,0 80,35.8164 80,80 V 240.828 c 0,44.184 -35.82,80 -80,80 z"
             style="fill:#000000;fill-opacity:1;fill-rule:nonzero;stroke:none"
             id="path841"
             inkscape:connector-curvature="0" /><path
             d="m 80,794.93 h 150.82 c 44.18,0 80,35.781 80,80 v 470.47 c 0,44.18 -35.82,80 -80,80 H 80 c -44.1797,0 -80,-35.82 -80,-80 V 874.93 c 0,-44.219 35.8203,-80 80,-80 z"
             style="fill:#000000;fill-opacity:1;fill-rule:nonzero;stroke:none"
             id="path843"
             inkscape:connector-curvature="0" /><path
             d="m 80,1706.61 h 150.82 c 44.18,0 80,35.78 80,80 v 470.47 c 0,44.18 -35.82,80 -80,80 H 80 c -44.1797,0 -80,-35.82 -80,-80 v -470.47 c 0,-44.22 35.8203,-80 80,-80 z"
             style="fill:#000000;fill-opacity:1;fill-rule:nonzero;stroke:none"
             id="path845"
             inkscape:connector-curvature="0" /><path
             d="M 423.711,3122 H 80 c -44.1797,0 -80,-35.82 -80,-80 v -343.75 c 0,-44.18 35.8203,-80 80,-80 h 150.82 c 44.18,0 80,35.82 80,80 v 112.93 h 112.891 c 44.18,0 80,35.82 80,80 V 3042 c 0,44.18 -35.82,80 -80,80 z"
             style="fill:#000000;fill-opacity:1;fill-rule:nonzero;stroke:none"
             id="path847"
             inkscape:connector-curvature="0" /><path
             d="M 2247.11,3122 H 1776.6 c -44.18,0 -80,-35.82 -80,-80 v -150.82 c 0,-44.18 35.82,-80 80,-80 h 470.51 c 44.18,0 80,35.82 80,80 V 3042 c 0,44.18 -35.82,80 -80,80 z"
             style="fill:#000000;fill-opacity:1;fill-rule:nonzero;stroke:none"
             id="path849"
             inkscape:connector-curvature="0" /><path
             d="m 864.922,2811.18 h 470.468 c 44.18,0 80,35.82 80,80 V 3042 c 0,44.18 -35.82,80 -80,80 H 864.922 c -44.184,0 -80,-35.82 -80,-80 v -150.82 c 0,-44.18 35.816,-80 80,-80 z"
             style="fill:#000000;fill-opacity:1;fill-rule:nonzero;stroke:none"
             id="path851"
             inkscape:connector-curvature="0" /><path
             d="m 3031.99,3122 h -343.71 c -44.18,0 -80,-35.82 -80,-80 v -150.82 c 0,-44.18 35.82,-80 80,-80 h 112.89 v -112.93 c 0,-44.18 35.82,-80 80,-80 h 150.82 c 44.18,0 80,35.82 80,80 V 3042 c 0,44.18 -35.82,80 -80,80 z"
             style="fill:#000000;fill-opacity:1;fill-rule:nonzero;stroke:none"
             id="path853"
             inkscape:connector-curvature="0" /><path
             d="m 3031.99,1425.4 h -150.82 c -44.18,0 -80,-35.82 -80,-80 V 874.93 c 0,-44.219 35.82,-80 80,-80 h 150.82 c 44.18,0 80,35.781 80,80 v 470.47 c 0,44.18 -35.82,80 -80,80 z"
             style="fill:#000000;fill-opacity:1;fill-rule:nonzero;stroke:none"
             id="path855"
             inkscape:connector-curvature="0" /><path
             d="m 3031.99,2337.08 h -150.82 c -44.18,0 -80,-35.82 -80,-80 v -470.47 c 0,-44.22 35.82,-80 80,-80 h 150.82 c 44.18,0 80,35.78 80,80 v 470.47 c 0,44.18 -35.82,80 -80,80 z"
             style="fill:#000000;fill-opacity:1;fill-rule:nonzero;stroke:none"
             id="path857"
             inkscape:connector-curvature="0" /></g></g></g></g></svg>