<?xml version="1.0" encoding="UTF-8" standalone="no"?>
<!-- Created with Inkscape (http://www.inkscape.org/) -->

<svg
   xmlns:dc="http://purl.org/dc/elements/1.1/"
   xmlns:cc="http://creativecommons.org/ns#"
   xmlns:rdf="http://www.w3.org/1999/02/22-rdf-syntax-ns#"
   xmlns:svg="http://www.w3.org/2000/svg"
   xmlns="http://www.w3.org/2000/svg"
   xmlns:sodipodi="http://sodipodi.sourceforge.net/DTD/sodipodi-0.dtd"
   xmlns:inkscape="http://www.inkscape.org/namespaces/inkscape"
   width="77.31411mm"
   height="77.449257mm"
   viewBox="0 0 77.31411 77.449257"
   version="1.1"
   id="svg996"
   inkscape:version="0.92.4 (5da689c313, 2019-01-14)"
   sodipodi:docname="edit.svg">
  <defs
     id="defs990" />
  <sodipodi:namedview
     id="base"
     pagecolor="#ffffff"
     bordercolor="#666666"
     borderopacity="1.0"
     inkscape:pageopacity="0.0"
     inkscape:pageshadow="2"
     inkscape:zoom="1.979899"
     inkscape:cx="64.756813"
     inkscape:cy="112.03218"
     inkscape:document-units="mm"
     inkscape:current-layer="layer1"
     showgrid="false"
     inkscape:window-width="1920"
     inkscape:window-height="1017"
     inkscape:window-x="1912"
     inkscape:window-y="-8"
     inkscape:window-maximized="1" />
  <metadata
     id="metadata993">
    <rdf:RDF>
      <cc:Work
         rdf:about="">
        <dc:format>image/svg+xml</dc:format>
        <dc:type
           rdf:resource="http://purl.org/dc/dcmitype/StillImage" />
        <dc:title />
      </cc:Work>
    </rdf:RDF>
  </metadata>
  <g
     inkscape:label="Layer 1"
     inkscape:groupmode="layer"
     id="layer1"
     transform="translate(120.29246,9.3387814)">
    <path
       sodipodi:type="inkscape:offset"
       inkscape:radius="0.75595081"
       inkscape:original="M 74.025391 148.64258 L 46.925781 175.74414 C 37.622347 184.57161 28.764257 193.84434 19.728516 202.93945 L 17.761719 210.4082 C 16.644386 214.64823 15.298181 219.82328 14.775391 221.89062 C 14.522818 222.88942 14.29427 223.79678 14.115234 224.5 C 14.179624 224.4842 14.158594 224.48956 14.226562 224.47266 C 14.959136 224.29007 15.996503 224.02756 17.314453 223.68945 C 19.950353 223.01324 23.710647 222.03856 28.421875 220.80859 L 35.599609 218.93359 L 62.765625 191.76758 L 89.837891 164.69531 L 89.837891 162.61719 L 89.837891 160.53906 L 83.888672 154.5918 L 77.943359 148.64258 L 75.982422 148.64258 L 74.025391 148.64258 z M 76.896484 150.27148 C 77.145404 150.27064 77.384393 150.36908 77.560547 150.54492 L 82.748047 155.73242 L 87.9375 160.92188 C 88.112891 161.09754 88.211258 161.33574 88.210938 161.58398 L 88.210938 162.61914 L 88.210938 163.65234 C 88.21126 163.90058 88.112898 164.13877 87.9375 164.31445 L 84.697266 167.55469 L 81.455078 170.79492 C 81.089627 171.16113 80.49631 171.16113 80.130859 170.79492 L 73.96875 164.63281 L 67.806641 158.46875 C 67.441734 158.10352 67.441734 157.51171 67.806641 157.14648 L 70.191406 154.75391 C 71.585069 153.3555 72.571585 152.38666 73.28125 151.72852 C 73.990915 151.07037 74.33131 150.73596 74.841797 150.50391 C 75.250525 150.31814 75.68522 150.27455 76.220703 150.27344 L 76.896484 150.27148 z M 66.017578 159.33594 C 66.261077 159.33894 66.493704 159.4373 66.666016 159.60938 L 72.828125 165.77148 L 78.990234 171.93555 C 79.356442 172.301 79.356442 172.89432 78.990234 173.25977 L 57.957031 194.29297 C 52.172793 200.07724 46.909455 205.33585 43.089844 209.14844 C 41.180038 211.05473 39.629969 212.59934 38.556641 213.66797 C 38.019976 214.20228 37.603366 214.61601 37.318359 214.89844 C 37.175856 215.03965 37.065752 215.14851 36.990234 215.22266 C 36.952474 215.25976 36.925304 215.28845 36.902344 215.31055 C 36.890864 215.32165 36.880008 215.3299 36.867188 215.3418 C 36.860788 215.3478 36.856244 215.35289 36.839844 215.36719 C 36.831644 215.37419 36.822672 215.3829 36.794922 215.4043 C 36.767172 215.4257 36.222742 215.59961 36.222656 215.59961 C 36.22257 215.59961 35.806811 215.50205 35.806641 215.50195 C 35.806471 215.50187 35.725521 215.45686 35.705078 215.44336 C 35.664198 215.41626 35.649619 215.40473 35.636719 215.39453 C 35.610919 215.37393 35.601347 215.36397 35.591797 215.35547 C 35.572697 215.33857 35.561485 215.32815 35.546875 215.31445 C 35.517655 215.28695 35.481645 215.25375 35.4375 215.21094 C 35.3492 215.12534 35.225723 215.00256 35.066406 214.8457 C 34.747773 214.53199 34.291443 214.08064 33.730469 213.52344 C 32.60852 212.40903 31.066831 210.87358 29.376953 209.18359 L 23.234375 203.03906 C 22.868167 202.67361 22.868167 202.08029 23.234375 201.71484 L 44.289062 180.66211 L 65.341797 159.60938 C 65.520808 159.43059 65.764608 159.33195 66.017578 159.33594 z M 21.589844 204.44727 C 22.103854 204.34642 22.269809 204.54387 22.396484 204.62695 C 22.649835 204.79316 22.834924 204.97389 23.21875 205.33984 C 23.986402 206.07175 25.407414 207.49497 28.158203 210.25195 C 29.728184 211.82547 31.154931 213.2646 32.191406 214.31836 C 32.709644 214.84524 33.130146 215.27566 33.423828 215.58008 C 33.570669 215.73229 33.685985 215.85172 33.769531 215.94141 C 33.811301 215.98621 33.844541 216.02341 33.876953 216.06055 C 33.893153 216.07915 33.907924 216.09571 33.933594 216.12891 C 33.946434 216.14551 33.961414 216.16338 33.990234 216.20898 C 34.004644 216.23178 34.021728 216.25988 34.048828 216.31836 C 34.062378 216.34756 34.095633 216.44115 34.095703 216.44141 C 34.095781 216.44167 34.136719 216.71271 34.136719 216.71289 C 34.136719 216.96292 34.010336 217.22519 33.892578 217.36133 C 33.77482 217.49747 33.677268 217.55573 33.597656 217.60156 C 33.438432 217.69326 33.322451 217.73233 33.164062 217.78711 C 32.847288 217.89667 32.379418 218.03402 31.587891 218.25977 C 28.913563 219.02248 21.571871 220.95599 19.154297 221.5332 C 18.582326 221.66977 18.291518 221.74448 18.001953 221.7793 C 17.857171 221.7967 17.695973 221.86595 17.322266 221.68555 C 17.135412 221.59535 16.926094 221.38172 16.841797 221.18555 C 16.757497 220.98937 16.759766 220.85172 16.759766 220.77344 C 16.759766 220.77244 16.768064 220.64692 16.771484 220.625 C 16.774884 220.6031 16.776997 220.58982 16.779297 220.57812 C 16.783897 220.55482 16.788699 220.53668 16.792969 220.51758 C 16.801569 220.47918 16.811029 220.43708 16.824219 220.38281 C 16.850599 220.27428 16.888129 220.12462 16.935547 219.9375 C 17.030377 219.56326 17.165758 219.03656 17.330078 218.40234 C 17.658717 217.13392 18.103856 215.4339 18.568359 213.66602 C 19.497366 210.13025 20.502348 206.33922 20.830078 205.16406 C 20.845598 205.10846 20.866548 205.01088 20.972656 204.85547 C 21.078759 204.70006 21.332839 204.49769 21.589844 204.44727 z "
       style="fill:#000000;stroke:#000000;stroke-width:0.07952053;stroke-opacity:1"
       id="path952"
       d="m 74.025391,147.88672 a 0.7560264,0.7560264 0 0 0 -0.535157,0.2207 l -27.099609,27.10156 c -9.31587,8.84021 -18.175297,18.11406 -27.199219,27.19727 a 0.7560264,0.7560264 0 0 0 -0.193359,0.33984 l -1.966797,7.46875 c -1.117829,4.24192 -2.463383,9.41456 -2.988281,11.49024 -0.252678,0.99921 -0.481529,1.90776 -0.660157,2.60937 a 0.7560264,0.7560264 0 0 0 0.91211,0.91993 c 0.06296,-0.0154 0.04443,-0.0102 0.113281,-0.0273 a 0.7560264,0.7560264 0 0 0 0.002,0 c 0.735058,-0.18321 1.77259,-0.44672 3.091797,-0.78515 2.637641,-0.67666 6.399419,-1.65267 11.111328,-2.88282 l 7.177735,-1.875 a 0.7560264,0.7560264 0 0 0 0.34375,-0.19531 l 27.166015,-27.16602 27.072266,-27.07226 a 0.7560264,0.7560264 0 0 0 0.220703,-0.53516 v -2.07812 -2.07813 a 0.7560264,0.7560264 0 0 0 -0.220703,-0.53515 l -5.949219,-5.94727 -5.945312,-5.94922 a 0.7560264,0.7560264 0 0 0 -0.535157,-0.2207 h -1.960937 z m 2.873047,3.14062 c 0.04736,-1.6e-4 0.09306,0.0196 0.126953,0.0527 l 5.1875,5.1875 5.189453,5.18945 c 0.03298,0.0337 0.0528,0.0777 0.05273,0.125 a 0.7560264,0.7560264 0 0 0 0,0.002 v 1.03516 1.0332 a 0.7560264,0.7560264 0 0 0 0,0.002 c 6.2e-5,0.0479 -0.01888,0.093 -0.05273,0.12695 l -3.240235,3.23828 -3.242187,3.24024 a 0.7560264,0.7560264 0 0 0 0,0.002 c -0.07647,0.0766 -0.177432,0.0766 -0.253906,0 a 0.7560264,0.7560264 0 0 0 0,-0.002 l -6.16211,-6.16211 -6.162109,-6.16407 c -0.07632,-0.0764 -0.07632,-0.17556 0,-0.25195 a 0.7560264,0.7560264 0 0 0 0,-0.002 l 2.384765,-2.39258 c 1.390988,-1.39573 2.373797,-2.35977 3.06836,-3.00391 0.714906,-0.66301 0.982717,-0.92058 1.359375,-1.09179 0.265474,-0.12066 0.573052,-0.16109 1.068359,-0.16211 z m -10.892579,9.06446 c 6.51e-4,0 0.08529,0.0351 0.126953,0.0527 l 6.160157,6.16211 6.162109,6.16406 a 0.7560264,0.7560264 0 0 0 0.002,0 c 0.07663,0.0765 0.07663,0.17744 0,0.25391 a 0.7560264,0.7560264 0 0 0 -0.002,0 l -21.033203,21.0332 c -5.784091,5.78413 -11.045855,11.04311 -14.865234,14.85547 -1.909563,1.90605 -3.460097,3.45112 -4.533203,4.51953 -0.536314,0.53396 -0.951884,0.94665 -1.236329,1.22852 -0.142192,0.1409 -0.252473,0.2499 -0.326171,0.32226 -0.03613,0.0355 -0.05045,0.0502 -0.0625,0.0625 -0.04201,0.0144 -0.08599,0.0301 -0.136719,0.0469 -0.04054,0.0134 -0.07446,0.0251 -0.111328,0.0371 a 0.7560264,0.7560264 0 0 0 -0.02148,-0.0117 c -8.5e-5,-4e-5 0.02715,0.0129 0.0078,0.002 -0.01741,-0.01 -0.04271,-0.0271 -0.01367,-0.008 h -0.002 c -0.0135,-0.009 -0.01167,-0.007 -0.01172,-0.008 l -0.0039,-0.004 c 0.0052,0.005 0.01857,0.0172 -0.01172,-0.01 a 0.7560264,0.7560264 0 0 0 -0.002,-0.002 c -0.01356,-0.012 -0.01399,-0.0129 -0.02734,-0.0254 -0.03382,-0.0318 -0.06469,-0.0599 -0.101562,-0.0957 -0.0818,-0.0793 -0.204536,-0.20311 -0.365235,-0.36133 -0.317448,-0.31254 -0.773623,-0.76372 -1.333984,-1.32031 -1.121288,-1.11376 -2.662353,-2.64857 -4.351563,-4.33789 l -6.142578,-6.14453 a 0.7560264,0.7560264 0 0 0 -0.002,0 c -0.07663,-0.0765 -0.07663,-0.17744 0,-0.25391 a 0.7560264,0.7560264 0 0 0 0.002,0 l 21.054688,-21.05273 21.052734,-21.05274 c 0.03456,-0.0345 0.08003,-0.0535 0.128906,-0.0527 z m -44.140625,45.08203 c 0.302376,0.20724 1.092647,0.96936 0.832032,0.71289 0.750635,0.71568 2.175056,2.14152 4.925781,4.89844 1.568944,1.57248 2.994735,3.01068 4.029297,4.0625 0.517263,0.52589 0.936014,0.95664 1.226562,1.25781 0.146959,0.15233 0.262685,0.27082 0.337891,0.35156 0.03584,0.0384 0.06136,0.067 0.08984,0.0996 0.01972,0.0226 0.01506,0.0167 0.0293,0.0352 0.02629,0.034 0.0024,4.9e-4 0.01562,0.0215 0.0087,0.0138 -0.0033,-0.009 0.01172,0.0234 -0.02363,-0.0509 -0.0022,-0.006 0.0059,0.0156 a 0.7560264,0.7560264 0 0 0 0.002,0.006 c 7.8e-5,2.6e-4 0.0098,0.0545 0.0098,0.0547 0,-0.005 -0.08197,0.17907 -0.06055,0.1543 -0.05243,0.0606 -0.02866,0.0392 -0.09961,0.0801 -0.102119,0.0588 -0.143497,0.0693 -0.304687,0.125 -0.283916,0.0982 -0.745843,0.23581 -1.535157,0.46093 -2.64746,0.75505 -10.01942,2.69669 -12.402343,3.26563 -0.576247,0.13759 -0.844534,0.20379 -1.066407,0.23047 -0.314703,0.0378 -0.03286,0.0851 -0.261718,-0.0254 0.03493,0.0169 -0.129601,-0.15517 -0.113282,-0.11719 -0.03172,-0.0738 -0.02148,-0.0204 -0.02148,-0.11328 0,-5e-4 -2.97e-4,0.0191 0.002,-0.0117 0.0023,-0.0308 0.01781,-0.13371 0,-0.0195 a 0.7560264,0.7560264 0 0 0 0,-0.002 c 0.0032,-0.0208 0.0056,-0.0242 0.0039,-0.0156 -3.08e-4,0.002 0.0023,-0.008 0.0098,-0.041 v -0.002 c 0.0084,-0.0374 0.01593,-0.0741 0.02734,-0.12109 0.02519,-0.10362 0.0622,-0.25135 0.109375,-0.4375 0.09423,-0.37189 0.230413,-0.89781 0.394531,-1.53125 0.328202,-1.26674 0.771929,-2.96689 1.236328,-4.73438 0.928705,-3.53462 1.937622,-7.3351 2.259766,-8.49023 0.02974,-0.10653 -0.01008,-0.014 0.03906,-0.0859 -0.03846,0.0563 0.164283,-0.0968 0.138672,-0.0918 0.150458,-0.0295 0.147654,-0.008 0.128906,-0.0156 z"
       transform="translate(-133.61186,-157.18574)" />
  </g>
</svg>
