<?xml version="1.0" encoding="iso-8859-1"?>
<!-- Generator: Adobe Illustrator 21.0.0, SVG Export Plug-In . SVG Version: 6.00 Build 0)  -->
<svg xmlns="http://www.w3.org/2000/svg" xmlns:xlink="http://www.w3.org/1999/xlink" version="1.1" id="Capa_1" x="0px" y="0px" viewBox="0 0 512 512" style="enable-background:new 0 0 512 512;" xml:space="preserve" width="512" height="512">
<g>
	<path d="M507.605,422.762l-87.503-87.517l42.422-42.422c3.677-3.677,5.186-8.994,3.999-14.048   c-1.201-5.068-4.922-9.141-9.858-10.781l-254.561-84.858c-5.376-1.846-11.338-0.381-15.352,3.618   c-4.014,4.014-5.42,9.961-3.618,15.352l84.858,254.561c1.641,4.937,5.713,8.657,10.781,9.858   c5.098,1.172,10.386-0.337,14.048-3.999l42.422-42.422l87.518,87.503c5.86,5.86,15.351,5.86,21.211,0l63.633-63.633   C513.465,438.113,513.465,428.621,507.605,422.762z"/>
	<path d="M135,0h-30c-8.291,0-15,6.709-15,15s6.709,15,15,15h30c8.291,0,15-6.709,15-15S143.291,0,135,0z"/>
	<path d="M195,30h30c8.291,0,15-6.709,15-15s-6.709-15-15-15h-30c-8.291,0-15,6.709-15,15S186.709,30,195,30z"/>
	<path d="M285,30h30c8.291,0,15-6.709,15-15s-6.709-15-15-15h-30c-8.291,0-15,6.709-15,15S276.709,30,285,30z"/>
	<path d="M135,390h-30c-8.291,0-15,6.709-15,15s6.709,15,15,15h30c8.291,0,15-6.709,15-15S143.291,390,135,390z"/>
	<path d="M375,30h15v15c0,8.291,6.709,15,15,15s15-6.709,15-15V15c0-8.291-6.709-15-15-15h-30c-8.291,0-15,6.709-15,15   S366.709,30,375,30z"/>
	<path d="M45,0H15C6.709,0,0,6.709,0,15v30c0,8.291,6.709,15,15,15s15-6.709,15-15V30h15c8.291,0,15-6.709,15-15S53.291,0,45,0z"/>
	<path d="M15,150c8.291,0,15-6.709,15-15v-30c0-8.291-6.709-15-15-15S0,96.709,0,105v30C0,143.291,6.709,150,15,150z"/>
	<path d="M15,240c8.291,0,15-6.709,15-15v-30c0-8.291-6.709-15-15-15s-15,6.709-15,15v30C0,233.291,6.709,240,15,240z"/>
	<path d="M15,330c8.291,0,15-6.709,15-15v-30c0-8.291-6.709-15-15-15s-15,6.709-15,15v30C0,323.291,6.709,330,15,330z"/>
	<path d="M420,105c0-8.291-6.709-15-15-15s-15,6.709-15,15v30c0,8.291,6.709,15,15,15s15-6.709,15-15V105z"/>
	<path d="M405,180c-8.291,0-15,6.709-15,15v19.146l30,9.999V195C420,186.709,413.291,180,405,180z"/>
	<path d="M45,390H30v-15c0-8.291-6.709-15-15-15s-15,6.709-15,15v30c0,8.291,6.709,15,15,15h30c8.291,0,15-6.709,15-15   S53.291,390,45,390z"/>
	<path d="M195,390c-8.291,0-15,6.709-15,15s6.709,15,15,15h29.152l-10.001-30H195z"/>
</g>















</svg>
