<?xml version="1.0" encoding="UTF-8" standalone="no"?>
<svg
   xmlns:dc="http://purl.org/dc/elements/1.1/"
   xmlns:cc="http://creativecommons.org/ns#"
   xmlns:rdf="http://www.w3.org/1999/02/22-rdf-syntax-ns#"
   xmlns:svg="http://www.w3.org/2000/svg"
   xmlns="http://www.w3.org/2000/svg"
   xmlns:sodipodi="http://sodipodi.sourceforge.net/DTD/sodipodi-0.dtd"
   xmlns:inkscape="http://www.inkscape.org/namespaces/inkscape"
   version="1.0"
   width="126.5mm"
   height="108.73077mm"
   id="svg833"
   sodipodi:docname="mutex.svg"
   inkscape:version="0.92.4 (5da689c313, 2019-01-14)">
  <metadata
     id="metadata837">
    <rdf:RDF>
      <cc:Work
         rdf:about="">
        <dc:format>image/svg+xml</dc:format>
        <dc:type
           rdf:resource="http://purl.org/dc/dcmitype/StillImage" />
        <dc:title></dc:title>
      </cc:Work>
    </rdf:RDF>
  </metadata>
  <sodipodi:namedview
     pagecolor="#ffffff"
     bordercolor="#666666"
     borderopacity="1"
     objecttolerance="10"
     gridtolerance="10"
     guidetolerance="10"
     inkscape:pageopacity="0"
     inkscape:pageshadow="2"
     inkscape:window-width="1920"
     inkscape:window-height="1017"
     id="namedview835"
     showgrid="false"
     inkscape:zoom="1.0503194"
     inkscape:cx="273.7903"
     inkscape:cy="147.77041"
     inkscape:window-x="-8"
     inkscape:window-y="-8"
     inkscape:window-maximized="1"
     inkscape:current-layer="svg833" />
  <defs
     id="defs819">
    <clipPath
       clipPathUnits="userSpaceOnUse"
       id="clipEmfPath1">
      <path
         d="M 27.343428,27.343428 H 506.73289 V 439.57359 H 27.343428 Z"
         id="path815"
         inkscape:connector-curvature="0" />
    </clipPath>
    <pattern
       id="EMFhbasepattern"
       patternUnits="userSpaceOnUse"
       width="6"
       height="6"
       x="0"
       y="0" />
  </defs>
  <path
     style="fill:#afabab;fill-opacity:1;fill-rule:evenodd;stroke:none"
     d="m 31.021199,138.31617 c 0,-74.155055 60.163542,-134.3185928 134.318591,-134.3185928 74.19504,0 134.3186,60.1635378 134.3186,134.3185928 0,74.19503 -60.12356,134.3186 -134.3186,134.3186 -74.155049,0 -134.318591,-60.12357 -134.318591,-134.3186 z"
     id="path821"
     inkscape:connector-curvature="0" />
  <path
     style="fill:none;stroke:#000000;stroke-width:7.99515438px;stroke-linecap:butt;stroke-linejoin:miter;stroke-miterlimit:8;stroke-dasharray:none;stroke-opacity:1"
     clip-path="url(#clipEmfPath1)"
     d="m 58.924288,166.21926 c 0,-74.155056 60.163542,-134.318594 134.318592,-134.318594 74.19504,0 134.3186,60.163538 134.3186,134.318594 0,74.19503 -60.12356,134.3186 -134.3186,134.3186 -74.15505,0 -134.318592,-60.12357 -134.318592,-134.3186"
     id="path823"
     inkscape:connector-curvature="0"
     transform="translate(-27.903089,-27.903089)" />
  <path
     style="fill:#0d0d0d;fill-opacity:1;fill-rule:evenodd;stroke:none"
     d="m 205.47547,206.59479 c 0,-74.15506 60.16354,-134.318589 134.31859,-134.318589 74.19504,0 134.3186,60.163529 134.3186,134.318589 0,74.19503 -60.12356,134.31859 -134.3186,134.31859 -74.15505,0 -134.31859,-60.12356 -134.31859,-134.31859 z"
     id="path825"
     inkscape:connector-curvature="0" />
  <path
     style="fill:none;stroke:#000000;stroke-width:7.99515438px;stroke-linecap:butt;stroke-linejoin:miter;stroke-miterlimit:8;stroke-dasharray:none;stroke-opacity:1"
     clip-path="url(#clipEmfPath1)"
     d="m 233.37856,234.49788 c 0,-74.15506 60.16354,-134.31859 134.31859,-134.31859 74.19504,0 134.3186,60.16353 134.3186,134.31859 0,74.19503 -60.12356,134.31859 -134.3186,134.31859 -74.15505,0 -134.31859,-60.12356 -134.31859,-134.31859"
     id="path827"
     inkscape:connector-curvature="0"
     transform="translate(-27.903089,-27.903089)" />
  <path
     style="fill:#ffffff;fill-opacity:1;fill-rule:evenodd;stroke:none"
     d="m 3.9975772,272.63477 c 0,-74.15506 60.1635378,-134.3186 134.3185928,-134.3186 74.19503,0 134.3186,60.16354 134.3186,134.3186 0,74.19503 -60.12357,134.31859 -134.3186,134.31859 -74.155055,0 -134.3185928,-60.12356 -134.3185928,-134.31859 z"
     id="path829"
     inkscape:connector-curvature="0" />
  <path
     style="fill:none;stroke:#000000;stroke-width:7.99515438px;stroke-linecap:butt;stroke-linejoin:miter;stroke-miterlimit:8;stroke-dasharray:none;stroke-opacity:1"
     clip-path="url(#clipEmfPath1)"
     d="m 31.900666,300.53786 c 0,-74.15506 60.163538,-134.3186 134.318594,-134.3186 74.19503,0 134.3186,60.16354 134.3186,134.3186 0,74.19503 -60.12357,134.31859 -134.3186,134.31859 -74.155056,0 -134.318594,-60.12356 -134.318594,-134.31859"
     id="path831"
     inkscape:connector-curvature="0"
     transform="translate(-27.903089,-27.903089)" />
</svg>
