<svg id="Layer_1" enable-background="new 0 0 512 512" height="512" viewBox="0 0 512 512" width="512" xmlns="http://www.w3.org/2000/svg"><path d="m301 421.259c-116.346 0-211-94.654-211-211 11.59-279.92 410.452-279.839 422 .002 0 116.344-94.654 210.998-211 210.998zm0-382c-94.29 0-171 76.71-171 171 9.393 226.855 332.642 226.789 342-.001 0-94.289-76.71-170.999-171-170.999zm68 191h-130c-26.536-1.056-26.516-38.953 0-40h130c26.536 1.056 26.516 38.954 0 40zm-334.897 275.573 90-89.5c7.833-7.789 7.868-20.452.079-28.284-7.789-7.833-20.453-7.868-28.284-.079l-90 89.5c-7.833 7.789-7.868 20.452-.079 28.284 3.909 3.931 9.045 5.897 14.182 5.897 5.099.001 10.2-1.938 14.102-5.818z"/></svg>