<?xml version="1.0" encoding="UTF-8" standalone="no"?>
<svg
   xmlns:dc="http://purl.org/dc/elements/1.1/"
   xmlns:cc="http://creativecommons.org/ns#"
   xmlns:rdf="http://www.w3.org/1999/02/22-rdf-syntax-ns#"
   xmlns:svg="http://www.w3.org/2000/svg"
   xmlns="http://www.w3.org/2000/svg"
   xmlns:sodipodi="http://sodipodi.sourceforge.net/DTD/sodipodi-0.dtd"
   xmlns:inkscape="http://www.inkscape.org/namespaces/inkscape"
   width="118.93694mm"
   height="117.26707mm"
   viewBox="0 0 118.93694 117.26708"
   version="1.1"
   id="svg2431"
   sodipodi:docname="s3alogo2.svg"
   inkscape:version="1.0.2 (e86c870879, 2021-01-15, custom)">
  <defs
     id="defs2425" />
  <sodipodi:namedview
     id="base"
     pagecolor="#ffffff"
     bordercolor="#666666"
     borderopacity="1.0"
     inkscape:pageopacity="0.0"
     inkscape:pageshadow="2"
     inkscape:zoom="1.979899"
     inkscape:cx="93.049737"
     inkscape:cy="206.33748"
     inkscape:document-units="mm"
     inkscape:current-layer="layer1"
     inkscape:document-rotation="0"
     showgrid="false"
     inkscape:window-width="1920"
     inkscape:window-height="1017"
     inkscape:window-x="-8"
     inkscape:window-y="-8"
     inkscape:window-maximized="1" />
  <metadata
     id="metadata2428">
    <rdf:RDF>
      <cc:Work
         rdf:about="">
        <dc:format>image/svg+xml</dc:format>
        <dc:type
           rdf:resource="http://purl.org/dc/dcmitype/StillImage" />
        <dc:title></dc:title>
      </cc:Work>
    </rdf:RDF>
  </metadata>
  <g
     inkscape:label="Layer 1"
     inkscape:groupmode="layer"
     id="layer1"
     transform="translate(-233.39823,-97.054665)">
    <ellipse
       style="fill:#ffffff;fill-opacity:1;stroke:none;stroke-width:5.31025;stroke-miterlimit:8;stroke-dasharray:none;stroke-dashoffset:24.2305;stop-color:#000000"
       id="path1579"
       cx="292.8667"
       cy="155.6882"
       rx="59.468468"
       ry="58.633537" />
    <path
       d="m 305.92815,148.46797 13.13956,-13.15367 h -36.06729 -0.46496 -0.17816 -3.30517 -3.33622 c -5.0038,0 -9.05122,4.06647 -9.05122,9.07062 v 0.18062 c 0,1.91312 0.59725,3.68829 1.61572,5.14456 0.33761,0.51611 0.73766,0.97543 1.17546,1.39418 1.33456,1.30175 3.05999,2.17981 5.0038,2.44616 0.12876,0.019 0.25717,0.0332 0.3877,0.0451 0.28575,0.0261 0.57362,0.0406 0.86854,0.0406 h 12.06182 c 2.55306,0 4.64715,2.07504 4.64715,4.62563 0,2.5534 -2.09409,4.62597 -4.64715,4.62597 h -16.42815 c -0.002,0.0162 -0.005,0.0332 -0.007,0.0497 -0.12347,0.9398 -0.18767,1.89865 -0.18767,2.87197 0,1.03963 0.0713,2.06057 0.21413,3.05999 h 16.40875 c 5.86282,0 10.62673,-4.74451 10.62673,-10.60767 0,-2.53189 -0.89712,-4.8634 -2.39148,-6.6982 -0.12136,-0.15945 -0.24024,-0.31855 -0.3997,-0.45931 -1.93463,-2.13184 -4.72581,-3.46922 -7.83555,-3.46922 h -12.06182 c -1.69404,0 -3.06917,-1.37513 -3.06917,-3.06952 v -0.18062 c 0,-1.69439 1.37513,-3.06952 3.06917,-3.06952 h 3.33622 v 0.005 h 25.52453 l -7.67856,7.69055 -0.92816,0.92781 2.74637,1.3088 1.08727,0.51894 c 5.47758,2.61232 9.01558,8.21619 9.01558,14.27903 0,8.71608 -7.09048,15.80656 -15.80656,15.80656 -6.89327,0 -12.7709,-4.43512 -14.92426,-10.60273 h -6.26251 c 2.33892,9.525 10.95234,16.61124 21.18677,16.61124 12.02796,0 21.81261,-9.78711 21.81261,-21.81507 0,-6.97406 -3.3909,-13.50821 -8.89706,-17.57715"
       style="fill:#263a95;fill-opacity:1;fill-rule:nonzero;stroke:none;stroke-width:0.352778"
       id="path857" />
    <path
       d="m 267.54325,152.56005 -19.77813,34.25719 h 6.88128 l 14.44837,-24.98901 0.76376,-1.3208 2.83139,-4.89691 c -1.83938,-0.49742 -3.50943,-1.45133 -4.89443,-2.80282 -0.0857,-0.0811 -0.16898,-0.16439 -0.25224,-0.24765 m 11.33122,-19.62573 h 6.92644 l 7.06473,-12.22093 7.06931,12.22093 h 6.92185 l -13.99116,-24.23513 z m 34.55917,11.38802 -3.98074,3.98568 c 3.97157,3.70029 6.60294,8.64447 7.4549,13.97212 l 14.19083,24.5371 h 6.86965 z"
       style="fill:#f04a23;fill-opacity:1;fill-rule:nonzero;stroke:none;stroke-width:0.352778"
       id="path861" />
  </g>
</svg>
