<?xml version="1.0"?>
<svg xmlns="http://www.w3.org/2000/svg" version="1" viewBox="0 0 24 24" enable-background="new 0 0 24 24">
    <path d="M 2 2 L 3.3125 10.3125 L 5.65625 7.96875 L 7.8125 10.09375 C 8.4125 10.69375 8.8875 11.3 9.1875 12 C 9.5875 10.8 10.1125 9.59375 10.8125 8.59375 C 10.6125 8.29375 10.29375 8.0125 10.09375 7.8125 L 7.96875 5.65625 L 10.3125 3.3125 L 2 2 z M 22 2 L 13.6875 3.3125 L 15.75 5.375 L 14.15625 7 L 13.6875 7.5 C 11.333947 9.8535534 10 12.98869 10 16.3125 L 10 22 L 14 22 L 14 16.3125 C 14 14.03631 14.853553 11.958947 16.5 10.3125 L 18.59375 8.21875 L 20.6875 10.3125 L 22 2 z"/>
</svg>
