<?xml version="1.0" encoding="UTF-8" standalone="no"?>
<!-- Created with Inkscape (http://www.inkscape.org/) -->

<svg
   xmlns:dc="http://purl.org/dc/elements/1.1/"
   xmlns:cc="http://creativecommons.org/ns#"
   xmlns:rdf="http://www.w3.org/1999/02/22-rdf-syntax-ns#"
   xmlns:svg="http://www.w3.org/2000/svg"
   xmlns="http://www.w3.org/2000/svg"
   xmlns:sodipodi="http://sodipodi.sourceforge.net/DTD/sodipodi-0.dtd"
   xmlns:inkscape="http://www.inkscape.org/namespaces/inkscape"
   version="1.1"
   id="svg859"
   xml:space="preserve"
   width="156"
   height="157.33333"
   viewBox="0 0 156 157.33333"
   sodipodi:docname="pan.svg"
   inkscape:version="0.92.4 (5da689c313, 2019-01-14)"><metadata
     id="metadata865"><rdf:RDF><cc:Work
         rdf:about=""><dc:format>image/svg+xml</dc:format><dc:type
           rdf:resource="http://purl.org/dc/dcmitype/StillImage" /><dc:title></dc:title></cc:Work></rdf:RDF></metadata><defs
     id="defs863"><clipPath
       clipPathUnits="userSpaceOnUse"
       id="clipPath877"><path
         d="M 0,7.98047 H 1170 V 1177.9805 H 0 Z"
         id="path875"
         inkscape:connector-curvature="0" /></clipPath></defs><sodipodi:namedview
     pagecolor="#ffffff"
     bordercolor="#666666"
     borderopacity="1"
     objecttolerance="10"
     gridtolerance="10"
     guidetolerance="10"
     inkscape:pageopacity="0"
     inkscape:pageshadow="2"
     inkscape:window-width="1920"
     inkscape:window-height="986"
     id="namedview861"
     showgrid="false"
     inkscape:zoom="4"
     inkscape:cx="77.471396"
     inkscape:cy="59.543526"
     inkscape:window-x="-11"
     inkscape:window-y="-11"
     inkscape:window-maximized="1"
     inkscape:current-layer="g867" /><g
     id="g867"
     inkscape:groupmode="layer"
     inkscape:label="ink_ext_XXXXXX"
     transform="matrix(1.3333333,0,0,-1.3333333,0,157.33333)"><g
       id="g869"
       transform="scale(0.1)"><g
         id="g871"><g
           id="g873"
           clip-path="url(#clipPath877)"><path
             d="M 1155.62,623.328 988.75,790.16 c -8.238,8.25 -18.051,12.391 -29.34,12.391 -11.289,0 -21.051,-4.141 -29.332,-12.391 -8.238,-8.238 -12.379,-18.039 -12.379,-29.332 V 677.391 H 667.422 v 250.308 h 83.437 c 11.289,0 21.09,4.102 29.34,12.391 8.242,8.238 12.379,18 12.379,29.289 0,11.332 -4.137,21.101 -12.379,29.34 L 613.32,1165.59 c -8.242,8.25 -18.011,12.39 -29.34,12.39 -11.281,0 -21.05,-4.14 -29.332,-12.39 L 387.809,998.719 c -8.239,-8.239 -12.379,-18.008 -12.379,-29.34 0,-11.289 4.14,-21.051 12.379,-29.289 8.242,-8.289 18.05,-12.391 29.339,-12.391 H 500.59 V 677.391 H 250.27 v 83.437 c 0,11.293 -4.098,21.094 -12.379,29.332 -8.243,8.25 -18.012,12.391 -29.34,12.391 -11.281,0 -21.051,-4.141 -29.289,-12.391 L 12.3789,623.328 C 4.14063,615.051 0,605.281 0,593.988 0,582.699 4.14063,572.898 12.3789,564.66 L 179.262,397.781 c 8.238,-8.242 18.008,-12.383 29.289,-12.383 11.328,0 21.097,4.141 29.34,12.383 8.281,8.278 12.379,18.047 12.379,29.34 v 83.43 h 250.32 v -250.27 h -83.442 c -11.289,0 -21.097,-4.14 -29.339,-12.383 -8.239,-8.238 -12.379,-18.046 -12.379,-29.339 0,-11.289 4.14,-21.047 12.379,-29.329 L 554.691,22.3906 c 8.239,-8.2422 18.008,-12.3789 29.329,-12.3789 11.289,0 21.058,4.1367 29.3,12.3789 L 780.199,189.23 c 8.242,8.282 12.379,18.04 12.379,29.329 0,11.293 -4.137,21.101 -12.379,29.339 -8.25,8.243 -18.051,12.383 -29.34,12.383 h -83.437 v 250.27 H 917.73 v -83.43 c 0,-11.293 4.11,-21.101 12.348,-29.34 8.281,-8.242 18.043,-12.383 29.371,-12.383 11.289,0 21.063,4.141 29.301,12.383 l 166.87,166.879 c 8.25,8.238 12.39,18.039 12.39,29.328 0,11.293 -4.14,21.063 -12.39,29.34 z"
             style="fill:#000000;fill-opacity:1;fill-rule:nonzero;stroke:none"
             id="path879"
             inkscape:connector-curvature="0" /></g></g></g></g></svg>